<svg xmlns:mydata="http://www.w3.org/2000/svg" mydata:contrastcolor="ffffff" mydata:template="SingleColorHex2" mydata:presentation="2.5" mydata:layouttype="undefined" mydata:specialfontid="undefined" mydata:id1="127" mydata:id2="499" mydata:companyname="nest commerce" mydata:companytagline="" version="1.1" xmlns="http://www.w3.org/2000/svg" xmlns:xlink="http://www.w3.org/1999/xlink" viewBox="0 0 550 470" width="550"  height="470" ><g fill="none" fill-rule="none" stroke="none" stroke-width="1" stroke-linecap="butt" stroke-linejoin="miter" stroke-miterlimit="10" stroke-dasharray="" stroke-dashoffset="0" font-family="none" font-weight="none" font-size="none" text-anchor="none" style="mix-blend-mode: normal"><g data-paper-data="{&quot;isGlobalGroup&quot;:true,&quot;bounds&quot;:{&quot;x&quot;:73.02999458955841,&quot;y&quot;:169.046130894718,&quot;width&quot;:403.94001082088323,&quot;height&quot;:131.90773821056402}}" fill="none"><g data-paper-data="{&quot;stacked&quot;:true,&quot;isPrimaryText&quot;:true}" fill-rule="nonzero" fill="none"><path d="M304.58477,169.86325v81.11901l-48.50717,-81.11901h-4.92697v84.22769h3.16734v-81.06036l48.44852,81.06036h4.98562v-84.22769z" data-paper-data="{&quot;glyphName&quot;:&quot;N&quot;,&quot;glyphIndex&quot;:0,&quot;firstGlyphOfWord&quot;:true,&quot;word&quot;:1,&quot;line&quot;:1,&quot;firstGlyphOfFirstLine&quot;:true}" fill="#007680"></path><path d="M318.01663,169.86325v84.22769h43.05232v-3.16734h-39.88498v-37.53881h32.08395v-3.10868h-32.08395v-37.24553h39.88498v-3.16734z" data-paper-data="{&quot;glyphName&quot;:&quot;E&quot;,&quot;glyphIndex&quot;:1,&quot;word&quot;:1,&quot;line&quot;:1}" fill="#007680"></path><path d="M391.8625,254.9121c-0.50834,0 -1.01668,-0.01955 -1.52501,-0.05865c-5.27889,-0.23462 -10.12766,-1.60322 -14.54629,-4.10581c-5.00517,-2.85451 -8.38758,-6.6475 -10.14721,-11.37895l2.93272,-1.11443c1.52501,4.14491 4.51639,7.44911 8.97412,9.91259c3.91029,2.15066 8.21161,3.3433 12.90396,3.57792c6.99942,0.27372 12.88441,-1.50546 17.65497,-5.33755c4.41863,-3.51926 6.7257,-7.74238 6.92122,-12.66935c0.39103,-9.11098 -7.35135,-15.89534 -23.22714,-20.35307c-8.56354,-2.38528 -15.01552,-5.55261 -19.35595,-9.50201c-4.34042,-3.9885 -6.39333,-8.58309 -6.15871,-13.78378c0.35193,-7.62507 3.55837,-13.27544 9.61932,-16.95112c4.96607,-3.05003 11.04658,-4.39908 18.24151,-4.04715c8.56354,0.35193 15.40655,3.26509 20.52903,8.7395l-2.34618,2.17021c-4.49684,-4.84876 -10.59689,-7.44911 -18.30017,-7.80103c-6.56929,-0.27372 -12.06325,0.91892 -16.48188,3.57792c-5.12248,3.12823 -7.82058,7.93789 -8.0943,14.42898c-0.39103,8.99367 7.35135,15.71937 23.22714,20.17711c8.56354,2.38528 15.01552,5.57217 19.35595,9.56066c4.34042,3.9885 6.39333,8.62219 6.15871,13.90109c-0.27372,5.86544 -2.99137,10.87061 -8.15296,15.01552c-5.00517,4.0276 -11.06613,6.0414 -18.18286,6.0414z" data-paper-data="{&quot;glyphName&quot;:&quot;S&quot;,&quot;glyphIndex&quot;:2,&quot;word&quot;:1,&quot;line&quot;:1}" fill="#007680"></path><path d="M421.95219,169.86325v3.16734h25.92524v81.06036h3.16734v-81.06036h25.92524v-3.16734z" data-paper-data="{&quot;glyphName&quot;:&quot;T&quot;,&quot;glyphIndex&quot;:3,&quot;lastGlyphOfWord&quot;:true,&quot;word&quot;:1,&quot;line&quot;:1,&quot;lastGlyphOfFirstLine&quot;:true}" fill="#007680"></path><path d="M268.89618,299.64477c-4.54144,0 -8.41217,-1.60809 -11.61218,-4.82427c-3.21618,-3.20002 -4.82427,-7.07074 -4.82427,-11.61218c0,-4.52528 1.60809,-8.396 4.82427,-11.61218c3.20002,-3.21618 7.07074,-4.82427 11.61218,-4.82427c2.32729,0 4.5576,0.47677 6.69094,1.43031v-1.43031c-2.14951,-0.87273 -4.37982,-1.3091 -6.69094,-1.3091c-4.897,0 -9.0748,1.73738 -12.5334,5.21215c-3.47477,3.4586 -5.21215,7.6364 -5.21215,12.5334c0,4.897 1.73738,9.0748 5.21215,12.5334c3.4586,3.47477 7.6364,5.21215 12.5334,5.21215c2.31112,0 4.54144,-0.43637 6.69094,-1.3091v-1.40607c-2.13334,0.93738 -4.36366,1.40607 -6.69094,1.40607z" data-paper-data="{&quot;glyphName&quot;:&quot;C&quot;,&quot;glyphIndex&quot;:4,&quot;firstGlyphOfWord&quot;:true,&quot;word&quot;:2,&quot;line&quot;:2,&quot;firstGlyphOfSecondLine&quot;:true}" fill="#007680"></path><path d="M291.00539,266.74763c-4.54144,0 -8.41217,1.60809 -11.61218,4.82427c-3.21618,3.20002 -4.82427,7.07074 -4.82427,11.61218c0,4.52528 1.60809,8.396 4.82427,11.61218c3.20002,3.21618 7.07074,4.82427 11.61218,4.82427c4.54144,0 8.41217,-1.60809 11.61218,-4.82427c3.21618,-3.21618 4.82427,-7.08691 4.82427,-11.61218c0,-4.54144 -1.60809,-8.41217 -4.82427,-11.61218c-3.20002,-3.21618 -7.07074,-4.82427 -11.61218,-4.82427zM291.00539,300.92963c-4.897,0 -9.0748,-1.73738 -12.5334,-5.21215c-3.47477,-3.4586 -5.21215,-7.6364 -5.21215,-12.5334c0,-4.897 1.73738,-9.0748 5.21215,-12.5334c3.4586,-3.47477 7.6364,-5.21215 12.5334,-5.21215c4.897,0 9.0748,1.73738 12.5334,5.21215c3.47477,3.4586 5.21215,7.6364 5.21215,12.5334c0,4.897 -1.73738,9.0748 -5.21215,12.5334c-3.4586,3.47477 -7.6364,5.21215 -12.5334,5.21215z" data-paper-data="{&quot;glyphName&quot;:&quot;O&quot;,&quot;glyphIndex&quot;:5,&quot;word&quot;:2,&quot;line&quot;:2}" fill="#007680"></path><path d="M342.86021,265.77793l-14.44856,33.45472l-14.44856,-33.45472h-2.15759v34.81231h1.3091v-33.50321l14.4728,33.50321h1.67274l14.4728,-33.50321v33.50321h1.28486v-34.81231z" data-paper-data="{&quot;glyphName&quot;:&quot;M&quot;,&quot;glyphIndex&quot;:6,&quot;word&quot;:2,&quot;line&quot;:2}" fill="#007680"></path><path d="M380.41192,265.77793l-14.44856,33.45472l-14.44856,-33.45472h-2.15759v34.81231h1.3091v-33.50321l14.4728,33.50321h1.67274l14.4728,-33.50321v33.50321h1.28486v-34.81231z" data-paper-data="{&quot;glyphName&quot;:&quot;M&quot;,&quot;glyphIndex&quot;:7,&quot;word&quot;:2,&quot;line&quot;:2}" fill="#007680"></path><path d="M386.8362,265.77793v34.81231h17.79403v-1.3091h-16.48494v-15.51523h13.26068v-1.28486h-13.26068v-15.39402h16.48494v-1.3091z" data-paper-data="{&quot;glyphName&quot;:&quot;E&quot;,&quot;glyphIndex&quot;:8,&quot;word&quot;:2,&quot;line&quot;:2}" fill="#007680"></path><path d="M409.23631,267.08702h10.93339c2.13334,0 3.95962,0.7596 5.47882,2.2788c1.5192,1.5192 2.2788,3.35355 2.2788,5.50306c0,2.14951 -0.7596,3.97578 -2.2788,5.47882c-1.5192,1.5192 -3.34547,2.2788 -5.47882,2.2788h-10.93339zM429.86673,300.59023l-8.67883,-16.70312c2.2788,-0.25859 4.18588,-1.24445 5.72124,-2.95759c1.55152,-1.7293 2.32729,-3.74951 2.32729,-6.06064c0,-2.50506 -0.88889,-4.64649 -2.66668,-6.42428c-1.77779,-1.77779 -3.91113,-2.66668 -6.40003,-2.66668h-12.24249v34.81231h1.3091v-16.65463h10.52127l8.65459,16.65463z" data-paper-data="{&quot;glyphName&quot;:&quot;R&quot;,&quot;glyphIndex&quot;:9,&quot;word&quot;:2,&quot;line&quot;:2}" fill="#007680"></path><path d="M449.30925,299.64477c-4.54144,0 -8.41217,-1.60809 -11.61218,-4.82427c-3.21618,-3.20002 -4.82427,-7.07074 -4.82427,-11.61218c0,-4.52528 1.60809,-8.396 4.82427,-11.61218c3.20002,-3.21618 7.07074,-4.82427 11.61218,-4.82427c2.32729,0 4.5576,0.47677 6.69094,1.43031v-1.43031c-2.14951,-0.87273 -4.37982,-1.3091 -6.69094,-1.3091c-4.897,0 -9.0748,1.73738 -12.5334,5.21215c-3.47477,3.4586 -5.21215,7.6364 -5.21215,12.5334c0,4.897 1.73738,9.0748 5.21215,12.5334c3.4586,3.47477 7.6364,5.21215 12.5334,5.21215c2.31112,0 4.54144,-0.43637 6.69094,-1.3091v-1.40607c-2.13334,0.93738 -4.36366,1.40607 -6.69094,1.40607z" data-paper-data="{&quot;glyphName&quot;:&quot;C&quot;,&quot;glyphIndex&quot;:10,&quot;word&quot;:2,&quot;line&quot;:2}" fill="#007680"></path><path d="M459.17597,265.77793v34.81231h17.79403v-1.3091h-16.48494v-15.51523h13.26068v-1.28486h-13.26068v-15.39402h16.48494v-1.3091z" data-paper-data="{&quot;glyphName&quot;:&quot;E&quot;,&quot;glyphIndex&quot;:11,&quot;lastGlyphOfWord&quot;:true,&quot;word&quot;:2,&quot;line&quot;:2,&quot;lastGlyphOfSecondLine&quot;:true}" fill="#007680"></path></g><g data-paper-data="{&quot;initialText&quot;:&quot;N&quot;,&quot;fillRule&quot;:&quot;nonzero&quot;,&quot;selectedEffects&quot;:{&quot;container&quot;:&quot;&quot;,&quot;transformation&quot;:&quot;&quot;,&quot;pattern&quot;:&quot;&quot;},&quot;bounds&quot;:{&quot;x&quot;:73.02999458955841,&quot;y&quot;:169.046130894718,&quot;width&quot;:99.71113076690901,&quot;height&quot;:131.90729476294106},&quot;isIcon&quot;:&quot;true&quot;,&quot;iconType&quot;:&quot;initial&quot;,&quot;iconStyle&quot;:&quot;standalone&quot;,&quot;rawInitialId&quot;:569,&quot;suitableAsStandaloneIcon&quot;:true}" fill-rule="evenodd" fill="none"><g data-paper-data="{&quot;isPathIcon&quot;:true}" fill="none"><path d="M171.78773,243.60056c-0.242,0.343 -0.477,0.674 0.008,1.725c1.439,2.21299 0.931,2.62899 0.452,3.02099c-0.229,0.188 -0.452,0.37 -0.452,0.74c-1.96199,-0.654 -2.94299,-0.163 0,3.43399v38.2639h-5.06899c-5.86698,-4.11999 -5.63498,-2.90199 -5.34199,-1.368c0.09,0.475 0.187,0.981 0.11,1.368c-0.374,0.053 -0.539,0.211 -0.688,0.354c-0.307,0.295 -0.547,0.527 -2.41899,-0.354c-2.01199,-1.677 -1.219,-0.63 -0.259,0.635c1.38,1.819 3.10299,4.09099 -2.68499,-0.635c-4.04899,-3.23999 -2.32199,-1.104 -0.78,0.804c1.573,1.94399 2.95399,3.65199 -2.16299,-0.804c-3.44499,-2.99199 -2.86899,-1.762 -2.31299,-0.573c0.447,0.955 0.882,1.88399 -0.794,0.573c0,0.807 -1.78,0 -3.40199,-0.736c-1.98899,-0.903 -3.73899,-1.697 -1.667,0.736c-0.164,1.471 0,2.94299 -0.164,3.26999l-6.37698,-5.88698c8.76498,7.90998 6.00098,4.98999 2.66999,1.47c-1.765,-1.86399 -3.68899,-3.89699 -4.14199,-4.57599c-3.76399,-3.85499 -2.51699,-3.18899 -1.43,-2.60799c0.897,0.479 1.685,0.9 -0.532,-1.317c-2.08499,-2.58199 -1.93899,-3.17399 -1.833,-3.60599c0.069,-0.28 0.122,-0.494 -0.456,-1.136c1.097,0.439 1.88199,0.915 2.24799,1.137l0.001,0.001c0.144,0.087 0.224,0.135 0.231,0.126c0.009,-0.012 -0.088,-0.108 -0.303,-0.322c-0.493,-0.492 -1.608,-1.602 -3.48499,-3.72199c-1.94899,-2.92299 -0.53,-1.724 0.035,-1.246c0.118,0.099 0.198,0.167 0.204,0.161c0.014,-0.013 -0.33,-0.384 -1.427,-1.566l-0.005,-0.004l-0.115,-0.125c1.471,0.654 2.12499,0.327 -1.472,-3.10699c-3.53099,-3.37699 -2.41399,-2.50299 -1.029,-1.419c1.565,1.225 3.47099,2.71699 -0.606,-1.36c-5.94198,-6.02398 -4.87499,-5.11899 -3.00999,-3.53699c1.88199,1.595 4.57599,3.87899 1.701,0.43c0.424,0.282 0.825,0.553 1.194,0.803c3.04599,2.05899 3.89799,2.63599 -2.66499,-4.07399c4.08799,3.10699 5.06899,3.59799 -1.799,-3.10699c-7.95398,-7.95398 -4.33899,-5.15999 -2.21599,-3.51899c1.019,0.788 1.695,1.31 0.581,0.249c0.771,0.617 -0.057,-0.511 -0.908,-1.67c-0.954,-1.299 -1.93699,-2.63799 -0.727,-1.6c7.26398,6.12198 5.24199,4.01299 2.45999,1.11c-1.601,-1.671 -3.45399,-3.60399 -3.93199,-4.38099c3.30299,2.75299 1.046,0.582 -1.617,-1.97799c-3.66299,-3.52299 -8.09398,-7.78398 0.145,-0.965c-0.776,-1.022 -1.39,-1.789 -1.83899,-2.35099c-0.682,-0.852 -0.988,-1.235 -0.918,-1.325c0.057,-0.074 0.363,0.046 0.918,0.262c0.112,0.044 0.235,0.092 0.368,0.143c-4.92899,-5.20699 -2.08399,-2.90599 -0.216,-1.395c1.416,1.146 2.27099,1.83699 -1.256,-1.548c0.14,0.107 0.269,0.208 0.389,0.3c0.603,0.466 0.946,0.732 0.989,0.69c0.056,-0.055 -0.415,-0.649 -1.51,-2.03099c-0.412,-0.519 -0.911,-1.148 -1.503,-1.90199c-8.66698,-8.33998 -3.92499,-5.06999 -1.145,-2.77999c-1.87099,-2.26499 -1.548,-2.21699 -1.28,-2.17799c0.176,0.026 0.329,0.048 -0.192,-0.602c-1.96199,-2.28899 -4.41499,-5.23299 -6.21298,-7.03098c0,0 -0.327,0 -0.981,-0.164c-3.27089,-1.145 -1.7992,2.28899 0,4.74199c-1.7042,-1.107 -0.745,0.448 0.102,1.822c0.779,1.264 1.464,2.37499 -0.102,1.121c-4.32329,-3.78199 -2.39649,-0.868 -0.858,1.458c0.324,0.489 0.63,0.953 0.858,1.322c1.335,1.96399 0.18,1.513 -0.8,1.13c-1.0618,-0.414 -1.92019,-0.749 0.8,2.14099c3.33399,3.41799 1.781,2.71299 0.215,2.00299c-1.5046,-0.683 -3.02069,-1.371 -0.215,1.594c-4.96039,-3.25899 -2.67449,-0.255 -0.806,2.19999c0.288,0.378 0.566,0.743 0.806,1.071c-4.87959,-3.42899 -3.48449,-1.434 -1.4753,1.439c0.4823,0.69 1.0003,1.43 1.4753,2.15799c7.03798,7.03898 4.92899,5.50099 2.22499,3.52999c-2.50999,-1.829 -5.53158,-4.03199 -2.22499,-0.096c3.84099,4.36599 1.85499,3.27699 0.091,2.30899c-1.5399,-0.844 -2.91119,-1.596 -0.091,1.452c3.73799,4.29899 2.77599,3.84399 1.509,3.24499c-0.95,-0.449 -2.06999,-0.979 -1.509,0.352c-0.515,0.065 0.564,1.546 1.595,2.96099c1.591,2.18199 3.06699,4.20799 -1.595,0.637c0.278,0.446 -0.109,0.436 -0.578,0.423c-0.9054,-0.025 -2.11569,-0.058 0.578,3.17399c-12.91856,-11.44597 -5.88718,-3.26999 0,3.43399c-2.30129,-1.193 -0.916,0.634 0.267,2.19399c1.087,1.434 2.00299,2.64299 -0.267,1.077c-4.90609,-3.92499 -7.03188,-4.41499 0,3.26999c-0.147,-0.037 -0.834,-0.532 -1.677,-1.14c-2.92239,-2.10699 -7.71508,-5.56198 1.677,4.08299c6.20298,5.93998 3.66999,4.63499 1.43,3.47999c-0.534,-0.275 -1.052,-0.542 -1.43,-0.7c6.37998,7.10998 3.76699,5.58198 1.253,4.11199c-1.99699,-1.168 -3.93109,-2.29899 -1.253,0.957c2.92799,3.37299 2.09999,3.08499 1.044,2.71699c-0.89,-0.31 -1.94199,-0.675 -1.044,1.044c0.501,0.684 1.294,1.583 2.04699,2.43699c1.94799,2.20899 3.62499,4.10999 -0.739,1.161c-9.32097,-7.68598 -1.636,0.163 -0.164,0.981l0.327,0.818c-2.57199,-2.41199 -3.45539,-3.22299 -3.47679,-3.20099c-0.0146,0.015 0.3677,0.414 0.8878,0.957c1.831,1.90999 5.36899,5.60198 -0.6812,0.608c-6.86788,-5.72298 -6.05028,-3.92399 -1.96229,0c-15.69786,-13.57196 -17.66015,-14.38896 -3.43389,-0.49c-12.91806,-10.95597 -10.46527,-7.52198 -4.41499,-0.981c14.31136,15.13596 11.36837,12.67197 2.76729,5.46899c-1.6197,-1.357 -3.44009,-2.88199 -5.38369,-4.48799c10.07027,9.97697 6.84818,7.40598 2.64289,4.04999c-3.16969,-2.52899 -6.89708,-5.50299 -5.91328,-3.88699c-0.2616,-0.032 -0.5363,-0.072 -0.811,-0.111c-1.0989,-0.157 -2.19779,-0.314 -2.45939,-0.052h-7.35838v-120.84167h16.02496c-0.936,-1.361 -0.0123,-0.907 1.0891,-0.366c1.0152,0.499 2.18129,1.072 2.18129,0.366c2.93429,2.06499 2.76279,1.313 2.60569,0.624c-0.0793,-0.347 -0.1549,-0.679 0.1742,-0.624c0.6802,0 1.4981,0.138 2.28319,0.27c1.4795,0.249 2.84249,0.478 2.94949,-0.27c2.61599,0.654 4.08799,0.654 4.57799,0.327c0.164,0.654 0.982,1.308 1.636,2.45299c1.549,1.472 1.153,1.366 0.708,1.246c-0.495,-0.133 -1.052,-0.282 0.927,1.697c1.567,1.665 1.55,2.09799 1.531,2.59999c-0.014,0.335 -0.028,0.701 0.431,1.488c0.818,1.472 0.654,3.10699 2.45299,4.90599c6.37698,6.21398 1.472,2.61599 1.472,2.61599c0.41,0.753 0.076,0.761 -0.2,0.768c-0.382,0.009 -0.652,0.016 1.344,2.01199c5.69598,5.69598 4.56599,4.92499 2.93299,3.81099c-0.57,-0.389 -1.201,-0.819 -1.625,-1.031c0.655,0.981 1.145,2.45299 1.636,3.10699c1.766,2.00799 0.812,1.491 0.061,1.085c-0.779,-0.421 -1.339,-0.724 1.574,2.02199c1.308,2.61599 0.654,1.308 1.635,3.10699c6.04998,6.37698 4.25199,5.72298 1.472,3.26999c0.966,0.966 0.75,1.054 0.503,1.154c-0.297,0.12 -0.637,0.258 0.968,1.95299c-5.39599,-4.57899 -1.471,0.163 1.472,3.26999c0,0.177 0.467,0.779 0.973,1.43c0.898,1.156 1.91699,2.46799 0.662,1.84099c0.279,0.331 0.548,0.648 0.803,0.95c2.14299,2.52799 3.29899,3.89299 0.669,1.99299c-4.11199,-2.90299 -0.531,0.905 1.083,2.61999c0.568,0.604 0.893,0.949 0.552,0.651c0.143,0.142 0.357,0.353 0.62,0.612c2.45299,2.41899 9.12298,8.99298 0.852,2.49399c-4.09899,-3.44599 -1.724,-0.95 0.324,1.203c1.547,1.626 2.90699,3.05499 1.148,1.577l1.635,2.94399c-5.39599,-4.90599 -8.50298,-6.86798 0.981,2.45199c-0.654,0.818 0.163,2.28999 2.45299,4.74299c0.666,0.804 1.209,1.449 1.645,1.96499c1.158,1.374 1.552,1.84199 1.452,2.00399c-0.051,0.083 -0.234,0.085 -0.51,0.089c-0.175,0.003 -0.386,0.006 -0.625,0.03c0.818,1.144 2.12599,2.77899 3.43399,4.25099c0.327,0 0.327,-0.654 -0.654,-1.799c1.308,0.982 5.88698,2.77999 0,-3.76099c-0.634,-1.505 -0.154,-2.05099 0.266,-2.52999c0.448,-0.509 0.829,-0.942 -0.266,-2.37499c-2.12599,-3.10699 -1.799,-3.43399 0,-2.77999c-3.92499,-4.57899 -2.77999,-4.74199 0,-3.10699c-0.493,-0.924 1.474,0.403 3.33099,1.656c3.07199,2.07199 5.84098,3.93999 -3.33099,-4.92599c-1.306,-1.47 -0.616,-1.554 0.058,-1.635c0.676,-0.082 1.334,-0.162 -0.058,-1.636c0.099,-0.099 -0.296,-0.736 -0.763,-1.491c-1.079,-1.741 -2.54499,-4.10999 0.763,-1.94299c-0.491,-1.471 -0.393,-1.707 -0.236,-2.08399c0.105,-0.251 0.236,-0.565 0.236,-1.35c4.41699,2.69999 2.57299,0.059 1.101,-2.04999c-0.489,-0.701 -0.938,-1.343 -1.101,-1.711c-0.045,-0.265 -0.281,-0.747 -0.543,-1.282c-0.707,-1.441 -1.603,-3.26899 0.543,-2.31499c-1.331,-1.801 -0.675,-1.652 0.029,-1.493c0.766,0.174 1.59,0.36 -0.029,-1.94099c0.776,0.141 0.09,-0.998 -0.599,-2.14099c-0.907,-1.504 -1.817,-3.01399 0.599,-1.62c-0.13,-0.651 0.128,-0.887 0.373,-1.111c0.37,-0.339 0.71,-0.649 -0.373,-2.32299v-27.96192h28.45192v60.50284c0,0.442 -0.224,0.66 -0.445,0.875c-0.433,0.421 -0.853,0.829 0.445,2.88599c-0.196,0.327 0.079,1.125 0.354,1.92299c0.412,1.197 0.824,2.39399 -0.354,2.00099c-2.65099,-1.733 -1.86799,-0.351 -0.983,1.213c0.535,0.944 1.106,1.95399 0.983,2.38499c0.496,1.157 0.24,1.52 -0.008,1.87199zM102.46391,216.21863c-0.164,-0.817 -1.799,-2.61599 -2.61669,-3.76099c-0.749,-0.321 -0.3077,0.409 0.2697,1.364c0.306,0.504 0.649,1.071 0.875,1.58c0,-0.164 0.327,0 1.472,0.817zM106.0609,223.25061c-5.88698,-5.72298 -7.52178,-8.82998 -1.96199,-3.92499c4.66099,4.05399 2.79199,2.20399 0.423,-0.139c-1.453,-1.438 -3.09499,-3.06199 -3.52999,-3.62199c0.02,0.031 0.041,0.061 0.062,0.093c0.321,0.477 0.715,1.062 0.102,1.216c-3.21589,-2.41199 -2.31839,-1.275 -0.989,0.408c0.563,0.714 1.204,1.526 1.643,2.20799c0.654,0.49 2.12499,1.799 4.25099,3.76099z" fill="#007680"></path><path d="M143.6708,294.21842c0.327,0 0.327,0 0.49,-0.164c0.437,0.728 0.355,0.678 -0.245,0.312c-0.074,-0.045 -0.156,-0.095 -0.245,-0.148z" fill="#007680"></path><path d="M105.40691,169.94276c0,0.164 -0.327,0.164 -0.491,0.327c-0.327,-0.654 0,-0.654 0.491,-0.327z" fill="#007680"></path><path d="M102.13692,291.92843l-0.981,-1.144c0.49,0.49 0.817,0.817 0.981,1.144z" fill="#007680"></path><path d="M143.6708,294.21842c-1.308,-0.981 -4.25199,-3.43399 -4.41499,-3.43399c2.77999,2.45299 3.92399,3.43399 4.41499,3.43399z" fill="#007680"></path></g></g><path d="M204.10493,300.95387v-131.90774h0.82116v131.90774z" data-paper-data="{&quot;isShapeTextSeparator&quot;:true}" fill="#007680" fill-rule="nonzero"></path></g></g></svg>